<?xml version="1.0" standalone="no"?>
<!DOCTYPE svg PUBLIC "-//W3C//DTD SVG 20010904//EN"
 "http://www.w3.org/TR/2001/REC-SVG-20010904/DTD/svg10.dtd">
<svg version="1.0" xmlns="http://www.w3.org/2000/svg"
 width="480.000000pt" height="480.000000pt" viewBox="0 0 480.000000 480.000000"
 preserveAspectRatio="xMidYMid meet">
<metadata>
Created by potrace 1.14, written by Peter Selinger 2001-2017
</metadata>
<g transform="translate(0.000000,480.000000) scale(0.100000,-0.100000)"
fill="#000000" stroke="none">
<path d="M0 2400 l0 -2400 2400 0 2400 0 0 2400 0 2400 -2400 0 -2400 0 0
-2400z m2725 1775 c145 -27 264 -63 376 -113 44 -20 71 -27 80 -21 27 17 181
10 226 -11 73 -33 132 -79 153 -120 26 -51 25 -62 -5 -98 -14 -17 -25 -33 -25
-37 0 -4 33 -42 73 -86 41 -43 96 -111 123 -151 27 -40 64 -86 82 -103 19 -16
58 -52 87 -78 88 -80 116 -170 76 -246 -17 -32 -17 -36 0 -100 10 -36 19 -76
19 -88 0 -11 14 -63 31 -115 73 -222 79 -392 21 -618 -15 -57 -70 -183 -105
-239 -32 -51 -163 -191 -178 -191 -4 0 -33 -30 -64 -67 -31 -38 -91 -103 -133
-146 -51 -51 -70 -77 -59 -77 33 0 75 -29 86 -60 7 -21 7 -47 1 -82 -18 -95
-14 -114 32 -156 64 -58 88 -119 88 -228 0 -113 -23 -194 -80 -281 -52 -79
-153 -171 -236 -214 -43 -22 -63 -38 -59 -47 3 -8 8 -31 11 -52 6 -38 6 -39
-32 -45 -22 -4 -52 -11 -68 -16 -42 -13 -1502 -12 -1527 1 -13 7 -19 7 -19 0
0 -5 -16 -10 -35 -10 l-34 0 6 50 c5 46 4 50 -15 50 -80 0 -219 76 -313 171
-105 106 -149 212 -151 365 -1 84 2 106 21 145 27 57 76 103 137 129 42 19 45
22 40 52 -21 141 -13 188 36 214 l30 15 -89 92 c-49 51 -102 110 -118 131 -17
22 -73 83 -125 135 -124 125 -178 226 -237 441 -11 37 -16 101 -16 200 0 133
3 155 32 260 18 63 40 151 50 195 10 44 24 99 30 122 10 35 9 48 -4 72 -21 41
-19 114 4 159 20 39 74 94 128 130 17 12 48 47 68 78 44 66 119 158 191 235
l53 57 -20 41 -19 41 21 41 c27 54 60 82 137 120 59 29 69 30 165 28 87 -2
109 1 152 20 67 30 207 76 275 90 30 6 75 15 100 20 78 15 435 13 525 -4z"/>
<path d="M1514 3960 c-57 -32 -94 -72 -94 -101 0 -29 34 -23 72 12 60 55 82
62 177 54 74 -6 90 -11 114 -33 38 -36 64 -87 72 -145 7 -45 9 -48 34 -45 18
2 27 10 29 26 6 41 -27 126 -73 187 -51 68 -66 73 -205 74 -65 1 -82 -3 -126
-29z"/>
<path d="M3190 3980 c-8 -5 -27 -10 -41 -10 -20 0 -34 -12 -61 -52 -20 -29
-43 -67 -52 -85 -21 -41 -22 -129 -1 -137 21 -8 45 21 45 55 0 37 34 110 64
138 12 11 35 22 52 23 16 1 35 6 42 12 7 5 35 9 61 8 51 -1 107 -26 153 -69
26 -25 58 -28 65 -6 7 19 -57 83 -108 109 -39 19 -63 24 -126 24 -43 0 -85 -5
-93 -10z"/>
<path d="M3670 3481 c0 -5 5 -13 10 -16 6 -3 10 -2 10 4 0 5 -4 13 -10 16 -5
3 -10 2 -10 -4z"/>
<path d="M1588 3463 c7 -3 16 -2 19 1 4 3 -2 6 -13 5 -11 0 -14 -3 -6 -6z"/>
<path d="M1848 3443 c7 -3 16 -2 19 1 4 3 -2 6 -13 5 -11 0 -14 -3 -6 -6z"/>
<path d="M1307 3404 c-12 -13 -92 -22 -103 -13 -8 7 -11 4 -10 -8 0 -11 -5
-17 -14 -16 -12 2 -16 -11 -18 -62 -2 -35 2 -74 8 -85 15 -29 53 -66 63 -62 5
1 6 -7 2 -18 -3 -11 -2 -20 4 -20 5 0 12 9 16 19 7 22 54 34 73 19 9 -8 11 -7
6 7 -6 15 -3 17 18 12 21 -6 27 -2 36 21 31 79 23 124 -31 180 -32 33 -39 37
-50 26z"/>
<path d="M2960 3401 c12 -8 12 -11 -3 -17 -9 -3 -27 -4 -38 -1 -12 3 -22 0
-26 -9 -3 -8 -13 -14 -22 -14 -13 0 -17 -11 -19 -54 -4 -102 35 -151 121 -149
27 0 54 6 60 12 6 6 16 11 22 11 14 0 45 69 45 99 0 52 -54 122 -92 120 -13
-1 -32 2 -43 6 -16 5 -17 5 -5 -4z"/>
<path d="M3755 3360 c4 -6 11 -8 16 -5 14 9 11 15 -7 15 -8 0 -12 -5 -9 -10z"/>
<path d="M1011 3184 c0 -11 3 -14 6 -6 3 7 2 16 -1 19 -3 4 -6 -2 -5 -13z"/>
<path d="M1410 3170 c0 -5 4 -10 9 -10 6 0 13 5 16 10 3 6 -1 10 -9 10 -9 0
-16 -4 -16 -10z"/>
<path d="M3870 3125 c-13 -14 -20 -25 -17 -25 10 0 49 41 45 46 -3 2 -15 -7
-28 -21z"/>
<path d="M2845 3120 c-3 -5 -2 -10 4 -10 5 0 13 5 16 10 3 6 2 10 -4 10 -5 0
-13 -4 -16 -10z"/>
<path d="M3720 2170 c0 -5 5 -10 10 -10 6 0 10 5 10 10 0 6 -4 10 -10 10 -5 0
-10 -4 -10 -10z"/>
<path d="M3475 2010 c-3 -5 -1 -10 4 -10 6 0 11 5 11 10 0 6 -2 10 -4 10 -3 0
-8 -4 -11 -10z"/>
<path d="M3406 1907 c3 -10 9 -15 12 -12 3 3 0 11 -7 18 -10 9 -11 8 -5 -6z"/>
<path d="M1520 1886 c0 -9 7 -16 16 -16 17 0 14 22 -4 28 -7 2 -12 -3 -12 -12z"/>
<path d="M1130 1886 c0 -2 7 -9 15 -16 13 -11 14 -10 9 4 -5 14 -24 23 -24 12z"/>
<path d="M1600 1795 c0 -3 9 -15 20 -27 22 -24 27 -13 6 15 -13 16 -26 23 -26
12z"/>
<path d="M3280 1770 c0 -5 7 -7 15 -4 8 4 15 8 15 10 0 2 -7 4 -15 4 -8 0 -15
-4 -15 -10z"/>
<path d="M3206 1704 c-11 -8 -16 -14 -10 -14 13 0 39 18 34 24 -3 2 -14 -2
-24 -10z"/>
<path d="M2965 1590 c-3 -5 -1 -10 4 -10 6 0 11 5 11 10 0 6 -2 10 -4 10 -3 0
-8 -4 -11 -10z"/>
<path d="M2050 1506 c0 -9 30 -14 35 -6 4 6 -3 10 -14 10 -12 0 -21 -2 -21 -4z"/>
<path d="M2573 1493 c9 -2 23 -2 30 0 6 3 -1 5 -18 5 -16 0 -22 -2 -12 -5z"/>
<path d="M2653 1493 c9 -2 23 -2 30 0 6 3 -1 5 -18 5 -16 0 -22 -2 -12 -5z"/>
<path d="M2778 1483 c7 -3 16 -2 19 1 4 3 -2 6 -13 5 -11 0 -14 -3 -6 -6z"/>
<path d="M3330 1449 c0 -5 5 -7 10 -4 6 3 10 8 10 11 0 2 -4 4 -10 4 -5 0 -10
-5 -10 -11z"/>
<path d="M3275 1419 c-17 -5 -219 -9 -455 -8 l-424 1 -18 -22 c-10 -12 -18
-31 -18 -43 0 -31 -41 -106 -73 -133 -16 -13 -41 -24 -56 -24 -15 0 -36 -9
-46 -20 -25 -28 -139 -28 -193 -1 -34 17 -69 63 -64 84 1 4 -4 7 -12 7 -25 0
-64 58 -71 104 l-7 43 -121 5 c-67 2 -162 1 -212 -2 l-90 -5 -3 -65 c-3 -54 6
-126 24 -187 4 -15 30 -7 38 12 2 7 -1 33 -9 57 -7 24 -12 64 -11 89 l1 44 45
3 c25 2 62 -2 83 -8 38 -11 38 -12 23 -36 -15 -22 -15 -24 -1 -24 9 0 13 -5
10 -10 -4 -6 -2 -16 4 -23 5 -7 11 -42 13 -77 3 -59 5 -65 26 -68 22 -3 23 -5
7 -22 -10 -11 -14 -24 -9 -31 5 -9 10 -7 20 5 12 17 13 16 24 -3 6 -12 17 -21
25 -21 8 0 15 -8 15 -18 0 -10 8 -27 18 -38 26 -27 34 -54 22 -69 -8 -9 -8
-15 0 -20 5 -3 10 1 10 9 0 9 5 16 10 16 6 0 10 -7 10 -15 0 -8 5 -15 10 -15
6 0 10 -15 10 -34 0 -21 6 -36 15 -40 8 -3 15 -13 15 -21 0 -9 4 -14 9 -11 5
3 11 -5 15 -17 7 -28 54 -53 70 -37 14 14 26 13 26 -5 0 -27 23 -65 39 -65 9
0 27 -7 40 -16 13 -9 31 -18 40 -19 31 -3 76 -18 91 -29 22 -18 141 -39 152
-28 12 12 45 4 52 -13 4 -10 28 -12 103 -10 123 5 169 13 184 31 8 9 23 12 48
8 43 -6 103 26 100 54 -3 30 1 35 16 22 12 -10 23 -8 56 9 23 12 48 28 56 37
8 8 18 12 23 9 7 -5 22 25 41 83 5 15 0 36 -17 68 -13 25 -24 47 -24 50 0 6
53 -28 62 -40 3 -5 20 14 38 42 17 29 36 50 41 46 15 -9 10 13 -6 30 -20 19
-19 23 6 29 13 4 18 10 14 18 -6 9 -1 10 19 5 25 -6 36 6 16 19 -19 12 -11 38
10 32 12 -3 20 0 20 8 0 7 9 15 20 18 13 3 20 0 20 -9 0 -8 5 -14 11 -14 6 0
9 7 6 14 -3 8 1 29 9 46 14 28 19 30 52 25 l37 -6 -32 15 c-38 17 -42 32 -12
41 13 5 19 14 17 28 -1 12 1 28 5 35 5 6 4 12 -1 12 -6 0 -8 9 -5 20 4 14 17
21 47 25 62 10 111 3 110 -15 0 -8 -4 -50 -8 -93 -6 -71 -5 -78 10 -75 23 4
32 42 36 147 l3 86 -95 3 c-52 2 -99 7 -104 12 -11 11 -11 11 -51 -1z m-1158
-345 c-3 -3 -12 -4 -19 -1 -8 3 -5 6 6 6 11 1 17 -2 13 -5z m893 -14 c0 -5 -4
-10 -10 -10 -5 0 -10 5 -10 10 0 6 5 10 10 10 6 0 10 -4 10 -10z m75 -11 c10
-16 -1 -22 -26 -14 -17 6 -19 9 -8 16 19 12 26 11 34 -2z m-1005 -24 c-10 -12
-16 -13 -26 -4 -20 16 -18 19 12 19 22 0 25 -2 14 -15z m0 -45 c0 -5 -4 -10
-10 -10 -5 0 -10 5 -10 10 0 6 5 10 10 10 6 0 10 -4 10 -10z m864 -6 c4 -10 1
-14 -6 -12 -15 5 -23 28 -10 28 5 0 13 -7 16 -16z m-1073 -17 c-10 -9 -11 -8
-5 6 3 10 9 15 12 12 3 -3 0 -11 -7 -18z m882 -66 c4 -17 2 -18 -14 -8 -13 8
-15 13 -6 19 7 4 13 8 13 8 1 0 4 -9 7 -19z m-723 -1 c0 -5 -5 -10 -11 -10 -5
0 -7 5 -4 10 3 6 8 10 11 10 2 0 4 -4 4 -10z m607 -67 c-3 -10 -5 -2 -5 17 0
19 2 27 5 18 2 -10 2 -26 0 -35z m-267 16 c0 -6 -4 -7 -10 -4 -5 3 -10 11 -10
16 0 6 5 7 10 4 6 -3 10 -11 10 -16z m630 -15 c0 -8 -4 -12 -10 -9 -5 3 -10
10 -10 16 0 5 5 9 10 9 6 0 10 -7 10 -16z m-206 -46 c2 -19 7 -41 11 -49 6
-10 4 -10 -7 1 -9 8 -18 35 -21 59 -4 29 -2 40 5 33 5 -5 11 -25 12 -44z m216
12 c0 -5 -4 -10 -10 -10 -5 0 -10 5 -10 10 0 6 5 10 10 10 6 0 10 -4 10 -10z
m-803 -32 c-3 -7 -5 -2 -5 12 0 14 2 19 5 13 2 -7 2 -19 0 -25z m173 -3 c0
-14 -4 -25 -10 -25 -5 0 -10 11 -10 25 0 14 5 25 10 25 6 0 10 -11 10 -25z
m-38 -67 c-6 -6 -15 -8 -19 -4 -4 4 -1 11 7 16 19 12 27 3 12 -12z"/>
<path d="M1710 1000 c0 -5 5 -10 10 -10 6 0 10 5 10 10 0 6 -4 10 -10 10 -5 0
-10 -4 -10 -10z"/>
<path d="M1797 860 c-3 -11 -2 -20 3 -20 4 0 10 9 13 20 3 11 2 20 -3 20 -4 0
-10 -9 -13 -20z"/>
<path d="M1256 777 c3 -10 9 -15 12 -12 3 3 0 11 -7 18 -10 9 -11 8 -5 -6z"/>
<path d="M3025 717 c-4 -10 -5 -21 -1 -24 10 -10 18 4 13 24 -4 17 -4 17 -12
0z"/>
<path d="M1850 567 c0 -17 15 -31 58 -57 75 -45 184 -100 200 -100 7 0 20 -4
30 -9 92 -50 429 -63 581 -22 114 30 204 67 279 114 56 35 62 41 49 55 -14 13
-23 10 -80 -26 -71 -45 -135 -69 -272 -102 -125 -31 -363 -30 -475 1 -90 25
-211 74 -262 106 -21 13 -40 23 -43 23 -3 0 -14 9 -25 20 -26 26 -40 25 -40
-3z"/>
<path d="M3260 490 c-13 -8 -12 -10 3 -10 9 0 17 5 17 10 0 12 -1 12 -20 0z"/>
</g>
</svg>
